<?xml version="1.0" standalone="no"?>
<!DOCTYPE svg PUBLIC "-//W3C//DTD SVG 20010904//EN"
 "http://www.w3.org/TR/2001/REC-SVG-20010904/DTD/svg10.dtd">
<svg version="1.0" xmlns="http://www.w3.org/2000/svg"
 width="1280.000000pt" height="1280.000000pt" viewBox="0 0 1280.000000 1280.000000"
 preserveAspectRatio="xMidYMid meet">

<g transform="translate(0.000000,1280.000000) scale(0.100000,-0.100000)"
fill="#000000" stroke="none">
<path d="M6332 11029 c-169 -20 -314 -83 -449 -196 -83 -69 -1148 -1136 -1715
-1718 -366 -375 -1233 -1241 -1704 -1702 -159 -155 -311 -311 -339 -347 -145
-188 -211 -351 -226 -558 -21 -280 23 -473 158 -688 22 -35 259 -279 644 -665
336 -335 1178 -1180 1872 -1877 871 -874 1286 -1284 1339 -1323 183 -132 446
-199 648 -165 130 21 252 66 337 123 101 67 454 411 794 772 181 193 561 574
1394 1404 1600 1593 1631 1624 1696 1724 187 284 230 523 152 852 -32 140
-114 284 -246 439 -141 164 -470 508 -721 751 -417 404 -1500 1496 -1751 1765
-268 286 -1199 1215 -1268 1264 -103 73 -257 127 -403 140 -38 4 -85 9 -104
10 -19 2 -68 0 -108 -5z m213 -874 c84 -22 190 -76 287 -146 57 -42 355 -334
944 -923 795 -795 864 -867 909 -944 109 -189 129 -388 65 -643 -45 -177 -179
-457 -301 -628 -51 -71 -49 -60 3 25 136 225 260 530 294 726 21 123 14 287
-16 378 -52 157 -32 135 -889 992 -696 698 -868 866 -810 791 7 -10 33 -37 56
-61 24 -23 43 -47 43 -53 0 -7 9 -20 20 -29 14 -13 17 -20 10 -25 -7 -4 -17
-2 -23 4 -16 16 -37 -6 -37 -38 0 -15 -12 -45 -26 -68 -26 -39 -30 -41 -98
-52 -108 -17 -244 -11 -230 10 3 5 -4 9 -16 9 -12 0 -19 4 -16 9 3 5 -1 12
-10 15 -8 3 -12 2 -9 -4 10 -17 -5 -11 -38 13 -31 23 -137 85 -127 75 3 -3 52
-43 110 -89 57 -45 150 -123 205 -173 159 -144 512 -503 677 -690 l152 -171
-185 189 c-297 306 -641 636 -663 636 -10 0 18 -32 102 -115 23 -24 42 -49 42
-56 0 -11 -2 -11 -9 0 -8 12 -14 13 -35 3 -14 -6 -26 -17 -26 -25 0 -25 -67
-77 -100 -77 -23 0 -30 -4 -28 -17 2 -13 -5 -17 -35 -17 -20 -1 -37 2 -37 6 0
4 -7 5 -15 2 -8 -3 -29 5 -47 17 -25 17 -17 5 31 -49 34 -40 67 -72 72 -72 5
0 9 -9 9 -19 0 -11 13 -55 29 -98 17 -43 64 -172 107 -288 42 -115 93 -245
114 -290 82 -175 103 -225 95 -225 -3 0 -19 24 -35 54 -17 30 -37 57 -45 60
-8 3 -15 12 -15 20 0 8 -12 24 -26 35 -14 11 -23 25 -19 30 3 6 -8 3 -24 -7
-27 -15 -31 -22 -29 -59 2 -53 12 -73 30 -55 9 9 9 12 -5 12 -9 0 -17 5 -17
12 0 6 3 8 7 5 3 -4 11 -2 18 3 8 7 11 1 10 -24 0 -21 4 -32 10 -29 14 5 47
-30 43 -45 -4 -14 72 -102 191 -222 52 -52 108 -115 124 -140 16 -25 -218 201
-519 501 -585 583 -672 666 -829 792 -129 104 -213 158 -338 218 -120 57 -204
79 -306 79 -93 0 -133 -18 -219 -100 -35 -33 -66 -60 -70 -60 -9 1 378 378
503 492 50 45 73 64 53 42 -42 -44 -48 -60 -19 -44 32 17 179 11 265 -10 43
-11 80 -20 82 -20 2 0 -5 9 -17 21 -13 13 -17 24 -11 32 5 7 12 26 16 42 11
45 67 155 80 155 6 0 4 5 -4 10 -8 5 -35 10 -60 11 l-45 1 35 10 c79 23 239
-8 395 -76 33 -14 52 -20 41 -13 -10 6 -38 25 -61 40 l-44 28 6 62 c3 34 9 64
13 67 5 3 12 18 15 33 4 15 16 32 26 38 11 5 19 16 19 24 0 7 14 29 30 47 30
32 34 41 31 66 -1 7 9 12 24 12 14 0 25 5 25 10 0 6 12 10 28 11 l27 0 -25 11
c-14 5 -62 8 -110 5 -142 -8 -229 -55 -400 -213 l-105 -97 105 105 c114 113
210 178 300 202 73 19 221 20 295 1z m-705 -318 c0 -2 -10 -12 -22 -23 l-23
-19 19 23 c18 21 26 27 26 19z m-87 -90 c-10 -13 -38 -40 -63 -62 -35 -31 -32
-26 15 23 61 64 80 79 48 39z m-672 -733 c-35 -13 -83 -38 -108 -55 -50 -35
-348 -327 -341 -335 3 -2 21 2 40 10 19 8 66 23 104 32 60 15 75 24 121 72 29
29 53 57 53 61 0 4 12 14 28 22 32 17 78 63 103 104 11 17 19 23 19 15 0 -11
3 -12 8 -3 14 22 63 33 151 33 107 0 174 -19 222 -62 100 -91 139 -130 139
-141 0 -3 5 -18 12 -34 15 -36 20 -236 6 -244 -6 -4 19 -29 55 -55 37 -27 66
-52 67 -55 0 -3 -66 27 -147 67 -178 89 -221 106 -383 150 -278 77 -503 61
-670 -46 -25 -16 -142 -127 -260 -247 -118 -120 -493 -497 -833 -838 -340
-341 -623 -627 -628 -635 -5 -8 -9 -10 -9 -5 1 23 48 72 977 1005 706 709
1074 1074 1133 1121 66 54 137 87 185 87 11 1 -9 -10 -44 -24z m2630 -591 c13
-16 12 -17 -3 -4 -10 7 -18 15 -18 17 0 8 8 3 21 -13z m-2821 -417 c0 -2 -64
-53 -142 -112 -272 -205 -723 -572 -714 -581 7 -7 42 14 73 43 44 41 81 65 85
55 1 -4 12 -5 23 0 18 7 18 8 2 8 -10 1 -15 6 -12 11 4 6 16 8 26 5 11 -4 27
-1 35 6 13 10 17 10 24 -1 7 -11 14 -12 34 -2 22 10 26 9 26 -3 0 -11 7 -14
25 -9 19 5 25 2 25 -10 0 -12 9 -16 35 -16 29 0 36 -4 41 -25 3 -14 10 -25 15
-25 5 0 10 -8 10 -17 1 -17 2 -17 6 0 4 15 7 16 20 6 12 -10 16 -10 24 2 5 8
9 9 9 3 0 -6 -30 -38 -67 -70 -128 -111 -258 -231 -273 -250 -14 -18 -14 -18
6 -4 12 8 68 53 124 100 240 200 283 231 310 225 99 -24 162 -48 149 -56 -12
-8 -12 -10 1 -19 12 -8 12 -12 2 -18 -13 -9 -13 -62 0 -62 4 0 8 -7 8 -16 0
-9 7 -22 15 -28 10 -8 12 -16 5 -26 -8 -13 -11 -12 -24 5 -15 20 -15 20 -9 -2
3 -15 0 -25 -11 -29 -9 -3 -16 -10 -16 -15 0 -20 78 29 132 84 15 15 33 27 39
27 6 0 28 15 49 33 20 17 77 63 126 101 111 87 114 89 114 84 0 -2 -33 -31
-72 -63 -309 -253 -823 -733 -1062 -990 -256 -276 -413 -489 -476 -644 -18
-47 -36 -79 -38 -73 -7 22 28 122 73 207 48 90 52 109 11 48 l-25 -36 -10 24
c-5 13 -39 47 -76 74 -74 56 -145 122 -145 136 0 16 -18 10 -24 -8 -4 -10 -16
-29 -27 -43 l-20 -25 6 25 c12 45 96 203 146 275 63 91 146 194 212 264 28 31
58 65 66 76 7 11 -23 -17 -67 -63 -51 -52 -86 -81 -93 -76 -8 4 -9 3 -5 -4 4
-7 3 -12 -3 -12 -6 0 -8 -7 -5 -14 5 -13 2 -13 -19 -3 -14 6 -23 15 -21 19 3
4 -2 5 -10 2 -11 -4 -16 0 -16 13 0 10 -6 25 -12 31 -9 9 -13 49 -13 125 1
119 13 161 58 197 13 11 16 19 10 23 -12 8 -76 -60 -69 -72 3 -4 1 -23 -4 -42
-5 -19 -16 -96 -25 -172 -16 -147 -23 -187 -34 -187 -3 0 -15 10 -26 23 -28
30 -49 99 -42 136 4 17 3 31 -2 31 -4 0 -5 14 -3 31 3 23 7 27 14 18 7 -10 8
-8 3 8 -3 12 -1 24 5 28 6 3 8 11 5 16 -7 10 -129 -115 -177 -181 -39 -53 -45
-51 -11 2 64 103 296 349 546 581 258 238 693 590 1007 814 118 85 120 86 120
79z m2224 -62 c3 -8 2 -12 -4 -9 -6 3 -10 10 -10 16 0 14 7 11 14 -7z m2219
-457 c18 -58 24 -177 12 -233 -18 -77 -52 -166 -95 -239 -39 -69 -43 -80 -24
-71 12 6 21 13 19 16 -1 3 21 6 51 7 30 1 54 -2 54 -7 0 -6 10 -10 23 -10 23
-1 67 -31 67 -47 0 -22 46 -51 78 -49 28 2 31 0 26 -18 -9 -30 -60 -121 -107
-190 -66 -97 -205 -252 -388 -431 -194 -190 -278 -264 -306 -269 -10 -2 -80
-25 -156 -50 -141 -47 -157 -51 -157 -38 1 11 73 42 98 42 26 0 27 8 6 38 -10
15 -22 21 -34 17 -25 -8 -66 57 -51 82 9 16 10 14 11 -9 0 -16 5 -28 11 -28 7
0 9 12 7 30 -3 20 -1 29 7 27 6 -3 12 6 13 20 1 19 -2 24 -14 19 -9 -3 -1 10
17 29 18 18 36 32 41 29 4 -3 5 1 2 9 -3 8 2 22 12 31 9 9 15 19 12 21 -2 2
-87 -78 -188 -178 -323 -319 -566 -544 -575 -535 -2 2 189 197 426 433 768
767 941 968 1044 1210 32 75 39 103 43 180 8 151 -18 213 -153 360 -38 42 -70
78 -70 79 0 1 50 -47 110 -108 97 -98 112 -118 128 -169z m148 -114 c13 -16
12 -17 -3 -4 -10 7 -18 15 -18 17 0 8 8 3 21 -13z m44 -43 c10 -11 16 -20 13
-20 -3 0 -13 9 -23 20 -10 11 -16 20 -13 20 3 0 13 -9 23 -20z m-4552 -95 c-3
-9 -8 -14 -10 -11 -3 3 -2 9 2 15 9 16 15 13 8 -4z m4317 -256 c0 -5 -4 -9
-10 -9 -5 0 -10 7 -10 16 0 8 5 12 10 9 6 -3 10 -10 10 -16z m-6480 -188 c-5
-11 -15 -23 -22 -27 -7 -5 -8 -2 -3 7 21 37 44 55 25 20z m4632 8 c29 -6 76
-17 104 -25 l51 -15 6 -82 c2 -45 2 -85 -2 -89 -3 -3 -46 8 -96 25 -81 29
-102 32 -205 32 -106 0 -119 -2 -166 -27 -112 -59 -171 -168 -162 -302 6 -88
32 -149 88 -203 61 -60 131 -84 244 -84 91 0 184 19 212 41 10 9 14 35 14 96
l0 84 -130 0 -130 0 0 75 0 75 215 0 215 0 0 -216 0 -215 -77 -36 c-109 -50
-244 -77 -358 -69 -206 12 -355 100 -426 250 -40 84 -52 155 -47 268 4 86 9
106 39 165 64 126 193 226 324 251 70 14 224 14 287 1z m-1588 -9 c25 -9 26
-14 26 -80 l0 -70 -165 0 -165 0 0 -380 0 -380 -90 0 -90 0 0 380 0 380 -150
0 -150 0 0 75 0 75 373 3 c204 1 375 3 379 5 4 1 18 -2 32 -8z m354 -157 c55
-92 105 -178 111 -191 25 -47 39 -30 223 271 24 40 51 73 65 78 26 10 183 13
183 4 0 -3 -52 -85 -116 -183 -127 -192 -167 -254 -208 -319 -26 -42 -26 -45
-26 -228 l0 -185 -90 0 -90 0 0 185 0 184 -86 133 c-223 342 -263 406 -259
410 2 2 46 5 98 6 l94 4 101 -169z m2187 -623 c3 -5 1 -10 -4 -10 -6 0 -11 5
-11 10 0 6 2 10 4 10 3 0 8 -4 11 -10z m-3862 -147 c-137 -179 -244 -382 -313
-592 -22 -68 -43 -151 -47 -185 -3 -33 -10 -68 -15 -76 -13 -21 0 148 18 237
l14 71 -35 39 c-19 21 -35 43 -35 49 0 5 -10 21 -22 34 -27 29 -38 161 -17
212 25 64 127 162 188 183 51 17 117 20 126 5 4 -6 16 -8 27 -4 13 4 18 2 14
-4 -3 -6 -3 -13 2 -16 5 -3 39 26 77 64 38 38 71 67 73 65 3 -3 -22 -40 -55
-82z m3927 27 c0 -5 -7 -7 -15 -4 -8 4 -15 8 -15 10 0 2 7 4 15 4 8 0 15 -4
15 -10z m-240 -114 c0 -2 -7 -7 -16 -10 -8 -3 -12 -2 -9 4 6 10 25 14 25 6z
m-2680 -186 c0 -95 -1 -100 -21 -100 -20 0 -20 3 -13 93 7 97 9 107 25 107 5
0 9 -44 9 -100z m129 26 l38 -57 7 32 c3 17 6 47 6 65 0 24 5 34 15 34 12 0
15 -18 15 -100 0 -122 -10 -128 -72 -37 l-43 62 -3 -62 c-3 -55 -6 -63 -22
-63 -18 0 -20 7 -20 93 0 52 3 97 6 100 12 12 35 -9 73 -67z m181 9 c12 -36
25 -65 29 -65 4 0 16 25 27 56 17 51 46 85 57 67 3 -5 -12 -50 -32 -100 -27
-69 -41 -93 -54 -93 -10 0 -20 8 -23 18 -4 9 -19 51 -34 92 -16 41 -26 78 -24
82 14 23 35 2 54 -57z m702 44 c4 -8 18 -36 29 -63 l22 -50 23 45 c13 24 23
51 24 60 0 18 24 32 34 22 3 -4 6 -48 6 -100 0 -76 -3 -93 -15 -93 -12 0 -15
13 -15 57 0 62 -7 62 -31 0 -9 -23 -21 -43 -26 -44 -6 -2 -19 19 -29 47 -10
27 -22 50 -27 50 -5 0 -7 -25 -5 -55 4 -48 2 -55 -14 -55 -16 0 -18 10 -18 93
0 52 3 97 7 101 9 9 25 3 35 -15z m255 -50 c12 -35 23 -66 23 -69 0 -3 12 22
26 55 51 119 74 113 74 -21 0 -84 -2 -94 -18 -94 -16 0 -18 7 -14 60 2 33 2
60 -1 60 -3 0 -17 -25 -31 -56 -29 -64 -47 -66 -59 -8 -13 64 -27 65 -27 1 0
-44 -3 -57 -15 -57 -12 0 -15 17 -15 93 0 52 3 97 7 101 15 15 29 -3 50 -65z
m430 6 l48 -65 5 57 c4 45 9 59 23 61 15 3 17 -6 17 -92 0 -93 -1 -96 -22 -96
-17 1 -34 18 -63 63 l-40 62 -3 -62 c-3 -55 -6 -63 -22 -63 -18 0 -20 7 -20
93 0 132 7 136 77 42z m-1109 43 c-3 -7 -24 -14 -47 -16 -37 -3 -42 -6 -39
-25 2 -18 11 -23 41 -25 49 -4 44 -26 -6 -30 -31 -3 -37 -7 -37 -27 0 -21 5
-24 42 -27 23 -2 43 -9 46 -15 3 -10 -14 -13 -62 -13 l-66 0 0 95 0 95 66 0
c48 0 65 -3 62 -12z m170 -10 c3 -16 -2 -17 -42 -12 -62 9 -63 -17 -2 -45 52
-22 65 -51 41 -87 -14 -22 -22 -25 -68 -22 -37 2 -52 7 -52 17 0 10 13 15 45
15 63 1 64 24 3 56 -51 26 -66 58 -42 86 18 22 113 15 117 -8z m170 10 c-3 -7
-15 -15 -28 -16 -22 -4 -22 -6 -18 -83 5 -76 4 -80 -16 -77 -19 3 -21 8 -18
79 l4 76 -31 6 c-57 12 -33 27 40 27 52 0 70 -3 67 -12z m642 -3 c0 -11 -12
-15 -45 -15 -38 0 -45 -3 -45 -20 0 -15 9 -21 40 -26 50 -8 48 -28 -3 -32 -31
-3 -37 -7 -37 -27 0 -21 5 -24 47 -27 26 -2 48 -9 51 -15 3 -10 -14 -13 -62
-13 l-66 0 0 95 0 95 60 0 c47 0 60 -3 60 -15z m408 3 c-3 -7 -16 -14 -31 -16
-26 -3 -26 -5 -29 -85 -4 -106 -21 -103 -28 5 l-5 83 -32 3 c-65 6 -31 22 48
22 60 0 80 -3 77 -12z m199 -256 c-45 -43 -102 -96 -127 -116 -25 -21 9 14 75
78 66 64 123 116 127 116 4 0 -29 -35 -75 -78z m-2172 -357 c604 -633 1028
-1058 1215 -1216 145 -123 265 -197 395 -244 95 -34 84 -46 -18 -19 -77 20
-150 57 -263 133 -80 54 -126 91 -274 224 -118 106 -117 102 9 -22 85 -84 131
-136 122 -139 -7 -2 -21 -13 -29 -23 -9 -11 -23 -19 -31 -19 -7 0 -23 -10 -35
-23 -23 -25 -81 -57 -102 -57 -7 0 -14 -5 -16 -11 -2 -5 -20 -11 -41 -12 -23
-1 -35 -6 -33 -13 3 -6 0 -16 -6 -22 -8 -8 -7 -13 4 -17 8 -3 39 -29 69 -57
102 -96 2 -23 -157 114 -235 202 -320 329 -504 745 -228 516 -290 628 -450
801 -63 69 -148 164 -189 211 l-74 86 104 -105 c58 -58 195 -199 304 -315z
m1995 192 c0 -2 -19 -18 -42 -36 l-43 -33 37 36 c34 33 48 42 48 33z m-150
-130 c0 -2 -12 -14 -27 -28 l-28 -24 24 28 c23 25 31 32 31 24z m1740 -42 c-7
-9 -15 -13 -17 -11 -7 7 7 26 19 26 6 0 6 -6 -2 -15z m-1830 -38 c0 -2 -12
-14 -27 -28 l-28 -24 24 28 c23 25 31 32 31 24z m-70 -61 c0 -2 -8 -10 -17
-17 -16 -13 -17 -12 -4 4 13 16 21 21 21 13z m1669 -133 c-306 -318 -596 -599
-651 -632 -149 -87 -267 -115 -463 -108 -193 6 -338 45 -545 146 -172 84 -315
198 -368 293 -15 27 -30 48 -33 48 -4 0 -53 -52 -109 -115 -56 -63 -104 -115
-107 -115 -3 0 19 28 49 61 29 34 85 100 123 148 39 48 86 103 105 122 52 52
180 162 180 154 0 -3 -15 -18 -32 -33 -67 -55 -151 -138 -169 -166 -13 -21
-15 -35 -8 -53 45 -118 363 -329 621 -412 335 -107 597 -72 819 109 46 37 221
206 389 374 168 168 309 306 313 306 5 0 -46 -57 -114 -127z m-1709 93 c0 -2
-8 -10 -17 -17 -16 -13 -17 -12 -4 4 13 16 21 21 21 13z m-50 -39 c0 -2 -10
-12 -22 -23 l-23 -19 19 23 c18 21 26 27 26 19z m-1781 -1445 c145 -150 262
-275 259 -277 -4 -5 -794 786 -1081 1083 -103 106 -192 203 -198 215 -13 26
649 -636 1020 -1021z m1652 923 c41 -30 80 -60 88 -66 7 -7 30 -20 50 -30 21
-10 43 -25 51 -33 11 -14 9 -16 -12 -16 -14 0 -33 -9 -43 -20 -25 -28 -116
-45 -161 -30 -19 7 -33 14 -31 17 3 2 -6 21 -19 41 -17 25 -23 44 -19 64 3 15
8 42 11 59 4 23 10 29 22 25 15 -5 15 -4 0 8 -15 11 -25 36 -15 36 2 0 37 -25
78 -55z m-391 -29 c0 -2 -8 -10 -17 -17 -16 -13 -17 -12 -4 4 13 16 21 21 21
13z m155 -586 c3 -5 -1 -10 -9 -10 -9 0 -16 5 -16 10 0 6 4 10 9 10 6 0 13 -4
16 -10z m-275 -164 c0 -2 -7 -6 -15 -10 -8 -3 -15 -1 -15 4 0 6 7 10 15 10 8
0 15 -2 15 -4z m-835 -456 c3 -5 1 -10 -4 -10 -6 0 -11 5 -11 10 0 6 2 10 4
10 3 0 8 -4 11 -10z m75 -83 c0 -6 -9 0 -20 13 -11 13 -20 25 -20 28 0 3 9 -3
20 -13 11 -10 20 -23 20 -28z m80 -79 c0 -6 -7 -5 -15 2 -8 7 -15 17 -15 22 0
6 7 5 15 -2 8 -7 15 -17 15 -22z"/>
<path d="M6850 8127 c0 -12 8 -27 18 -33 15 -10 17 -7 19 22 3 28 0 34 -17 34
-14 0 -20 -7 -20 -23z"/>
<path d="M4626 7332 c-2 -4 -1 -14 5 -22 7 -12 9 -10 9 8 0 23 -5 28 -14 14z"/>
<path d="M3915 7213 c-52 -47 -95 -88 -95 -91 0 -6 27 15 85 68 28 25 68 60
90 78 22 17 34 32 28 32 -7 0 -55 -39 -108 -87z"/>
<path d="M3693 7014 c-57 -53 -103 -100 -103 -106 0 -5 26 16 58 46 31 31 82
78 112 106 30 27 50 50 45 50 -6 0 -56 -43 -112 -96z"/>
<path d="M9150 6859 c0 -5 5 -7 10 -4 6 3 10 8 10 11 0 2 -4 4 -10 4 -5 0 -10
-5 -10 -11z"/>
<path d="M8513 6125 c-9 -25 2 -27 22 -5 17 18 17 20 1 20 -9 0 -19 -7 -23
-15z"/>
<path d="M8610 5930 c0 -5 5 -10 10 -10 6 0 10 5 10 10 0 6 -4 10 -10 10 -5 0
-10 -4 -10 -10z"/>
<path d="M6420 3599 c0 -5 5 -7 10 -4 6 3 10 8 10 11 0 2 -4 4 -10 4 -5 0 -10
-5 -10 -11z"/>
</g>
</svg>
